<svg id="visual" viewBox="0 0 960 540" width="960" height="540" xmlns="http://www.w3.org/2000/svg" xmlns:xlink="http://www.w3.org/1999/xlink" version="1.1"><rect x="0" y="0" width="960" height="540" fill="#ffffff"></rect><path d="M186 0L213 0L213 39L197 39L197 77L187 77L187 116L191 116L191 154L188 154L188 193L200 193L200 231L203 231L203 270L179 270L179 309L192 309L192 347L187 347L187 386L182 386L182 424L204 424L204 463L186 463L186 501L185 501L185 540L0 540L0 501L0 501L0 463L0 463L0 424L0 424L0 386L0 386L0 347L0 347L0 309L0 309L0 270L0 270L0 231L0 231L0 193L0 193L0 154L0 154L0 116L0 116L0 77L0 77L0 39L0 39L0 0L0 0Z" fill="#002aff"></path><path d="M150 0L147 0L147 39L163 39L163 77L150 77L150 116L143 116L143 154L144 154L144 193L145 193L145 231L158 231L158 270L154 270L154 309L141 309L141 347L152 347L152 386L164 386L164 424L154 424L154 463L148 463L148 501L156 501L156 540L0 540L0 501L0 501L0 463L0 463L0 424L0 424L0 386L0 386L0 347L0 347L0 309L0 309L0 270L0 270L0 231L0 231L0 193L0 193L0 154L0 154L0 116L0 116L0 77L0 77L0 39L0 39L0 0L0 0Z" fill="#eb009e"></path><path d="M105 0L96 0L96 39L108 39L108 77L113 77L113 116L109 116L109 154L99 154L99 193L103 193L103 231L114 231L114 270L104 270L104 309L114 309L114 347L118 347L118 386L107 386L107 424L98 424L98 463L114 463L114 501L118 501L118 540L0 540L0 501L0 501L0 463L0 463L0 424L0 424L0 386L0 386L0 347L0 347L0 309L0 309L0 270L0 270L0 231L0 231L0 193L0 193L0 154L0 154L0 116L0 116L0 77L0 77L0 39L0 39L0 0L0 0Z" fill="#ff3b55"></path><path d="M64 0L57 0L57 39L50 39L50 77L61 77L61 116L58 116L58 154L58 154L58 193L49 193L49 231L53 231L53 270L53 270L53 309L62 309L62 347L54 347L54 386L53 386L53 424L57 424L57 463L56 463L56 501L65 501L65 540L0 540L0 501L0 501L0 463L0 463L0 424L0 424L0 386L0 386L0 347L0 347L0 309L0 309L0 270L0 270L0 231L0 231L0 193L0 193L0 154L0 154L0 116L0 116L0 77L0 77L0 39L0 39L0 0L0 0Z" fill="#ff8900"></path></svg>